<?xml version="1.0" encoding="UTF-8" standalone="no"?><!DOCTYPE svg PUBLIC "-//W3C//DTD SVG 1.1//EN" "http://www.w3.org/Graphics/SVG/1.1/DTD/svg11.dtd"><svg width="100%" height="100%" viewBox="0 0 730 88" version="1.1" xmlns="http://www.w3.org/2000/svg" xmlns:xlink="http://www.w3.org/1999/xlink" xml:space="preserve" xmlns:serif="http://www.serif.com/" style="fill-rule:evenodd;clip-rule:evenodd;stroke-linejoin:round;stroke-miterlimit:2;"><g><path d="M148.496,21.333c-0.928,-1.563 -2.135,-2.837 -3.606,-3.784c-1.498,-0.957 -3.171,-1.658 -5.06,-2.121c-1.893,-0.417 -3.839,-0.65 -5.853,-0.65l-18.08,0l0,24.766c2.174,0.645 4.317,1.078 6.46,1.332c2.125,0.23 4.23,0.348 6.322,0.348c2.34,0 4.757,-0.199 7.283,-0.602c2.526,-0.4 4.821,-1.14 6.876,-2.226c2.051,-1.081 3.735,-2.512 5.067,-4.331c1.317,-1.808 1.984,-4.129 1.984,-7.02c0,-2.243 -0.463,-4.153 -1.394,-5.714m11.994,18.385c-2.002,3.492 -4.637,6.348 -7.897,8.593c-3.253,2.239 -6.98,3.885 -11.215,4.92c-4.208,1.045 -8.485,1.576 -12.822,1.576c-2.085,0 -4.186,-0.097 -6.261,-0.301c-2.099,-0.206 -4.223,-0.536 -6.397,-1.017l0,32.564l-13.605,0l0,-71.272l-10.604,0l0,-13.578l42.289,0c3.937,0 7.67,0.564 11.213,1.695c3.526,1.112 6.655,2.77 9.391,4.914c2.741,2.161 4.9,4.871 6.506,8.105c1.607,3.264 2.409,6.962 2.409,11.131c0,4.962 -1.01,9.196 -3.008,12.671" style="fill:#231f20;fill-rule:nonzero;"/><path d="M270.582,31.836c-1.579,-3.647 -3.731,-6.819 -6.514,-9.497c-2.752,-2.699 -5.998,-4.827 -9.69,-6.426c-3.7,-1.568 -7.627,-2.357 -11.815,-2.357c-4.188,0 -8.124,0.787 -11.803,2.357c-3.706,1.6 -6.916,3.727 -9.646,6.426c-2.727,2.679 -4.901,5.85 -6.507,9.497c-1.606,3.641 -2.407,7.52 -2.407,11.643c0,4.123 0.801,8 2.407,11.635c1.606,3.626 3.78,6.809 6.507,9.503c2.73,2.68 5.94,4.813 9.646,6.405c3.678,1.587 7.628,2.37 11.803,2.37c4.175,0 8.116,-0.783 11.815,-2.37c3.692,-1.593 6.889,-3.725 9.629,-6.405c2.727,-2.695 4.897,-5.877 6.507,-9.503c1.614,-3.636 2.411,-7.523 2.411,-11.635c0,-4.112 -0.781,-8.002 -2.342,-11.643m12.594,28.559c-2.338,5.27 -5.485,9.845 -9.462,13.779c-3.972,3.916 -8.635,7.013 -13.966,9.258c-5.355,2.248 -11.086,3.387 -17.186,3.387c-6.1,0 -11.711,-1.138 -17.05,-3.387c-5.337,-2.245 -9.999,-5.342 -13.973,-9.258c-3.985,-3.935 -7.139,-8.51 -9.476,-13.779c-2.31,-5.262 -3.482,-10.901 -3.482,-16.916c0,-6.015 1.172,-11.662 3.482,-16.926c2.337,-5.267 5.491,-9.856 9.476,-13.783c3.974,-3.918 8.636,-7.024 13.973,-9.321c5.339,-2.293 11.026,-3.447 17.05,-3.447c6.024,-0 11.831,1.155 17.186,3.447c5.331,2.297 9.995,5.404 13.966,9.321c3.977,3.928 7.124,8.516 9.462,13.783c2.322,5.264 3.494,10.903 3.494,16.926c0,6.023 -1.172,11.654 -3.494,16.916Z" style="fill:#231f20;fill-rule:nonzero;"/><path d="M332.703,87.5l0,-71.42l-10.356,0l0,-13.634l23.975,-0l0,71.422l33.622,0l0,13.632l-47.241,0Z" style="fill:#231f20;fill-rule:nonzero;"/><path d="M427.013,87.5l0,-71.542l-10.238,-0l0,-13.627l56.879,-0l0,13.627l-33.021,0l0,21.599l33.021,0l0,13.623l-33.021,0l0,22.688l33.021,0l0,13.632l-46.642,0Z" style="fill:#231f20;fill-rule:nonzero;"/><path d="M550.354,15.957l0,71.543l-13.633,0l0,-71.543l-25.679,0l0,-13.628l64.483,0l0,13.628l-25.171,0Z" style="fill:#231f20;fill-rule:nonzero;"/><path d="M54.893,50.918c-1.326,-3.089 -3.162,-5.768 -5.481,-8.065c-2.335,-2.296 -5.064,-4.112 -8.194,-5.416c-3.139,-1.282 -6.468,-1.948 -10.002,-1.948l-3.977,0c-1.688,0 -3.327,-0.183 -4.944,-0.55c-1.614,-0.346 -3.065,-0.923 -4.336,-1.722c-1.283,-0.776 -2.329,-1.805 -3.128,-3.081c-0.823,-1.258 -1.208,-2.815 -1.208,-4.631c0,-2.458 0.452,-4.418 1.383,-5.935c0.918,-1.501 2.178,-2.652 3.727,-3.456c1.579,-0.787 3.374,-1.315 5.371,-1.591c2.011,-0.272 4.057,-0.41 6.136,-0.41c0.286,0 0.572,-0.014 0.858,-0.022l19.921,0l0,-13.206l-19.079,-0c-0.747,-0.01 -1.473,-0.021 -2.135,-0.021c-0.336,0 -0.645,0.02 -0.971,0.021l-0.499,0l0,0.013c-3.451,0.067 -6.515,0.366 -9.712,1.157c-3.664,0.914 -6.872,2.357 -9.646,4.345c-2.77,1.977 -4.962,4.518 -6.567,7.639c-1.609,3.132 -2.409,6.96 -2.409,11.466c0,3.794 0.751,7.152 2.223,10.032c1.497,2.896 3.515,5.338 6.028,7.316c2.54,1.97 5.426,3.475 8.675,4.512c3.252,1.032 6.693,1.542 10.312,1.542l3.977,0c3.365,0 6.235,1.151 8.548,3.445c2.335,2.306 3.499,5.1 3.499,8.425c0,3.324 -1.164,6.136 -3.499,8.426c-2.312,2.312 -5.182,3.458 -8.548,3.458l-25.309,0l-0,13.405l25.308,0c3.534,0 6.863,-0.64 10.002,-1.945c3.13,-1.327 5.861,-3.127 8.194,-5.403c2.32,-2.299 4.155,-4.998 5.481,-8.088c1.313,-3.088 1.975,-6.376 1.975,-9.854c0,-3.478 -0.662,-6.761 -1.975,-9.857" style="fill:#231f20;fill-rule:nonzero;"/><path d="M681.533,54.923c-1.608,3.626 -3.75,6.782 -6.488,9.456c-2.717,2.679 -5.912,4.81 -9.592,6.372c-3.658,1.589 -7.587,2.382 -11.754,2.382c-4.167,0 -8.067,-0.793 -11.763,-2.382c-3.675,-1.561 -6.871,-3.692 -9.592,-6.372c-2.729,-2.673 -4.883,-5.829 -6.488,-9.456c-1.596,-3.62 -2.379,-7.495 -2.379,-11.578c0,-4.082 0.783,-7.955 2.379,-11.589c1.6,-3.633 3.758,-6.782 6.488,-9.451c2.721,-2.689 5.917,-4.815 9.592,-6.396c3.7,-1.567 7.596,-2.357 11.763,-2.357c4.167,0 8.096,0.789 11.754,2.357c3.679,1.581 6.896,3.707 9.65,6.396c2.758,2.669 4.925,5.817 6.492,9.451c0.571,1.353 1.012,2.74 1.367,4.155l-16.921,0l0,14.845l16.904,0c-0.375,1.418 -0.817,2.813 -1.413,4.167m47.633,-19.011l-32.25,0c-0.562,-3.256 -1.467,-6.411 -2.796,-9.42c-2.325,-5.241 -5.458,-9.802 -9.412,-13.706c-3.954,-3.918 -8.6,-7.003 -13.917,-9.29c-5.333,-2.283 -11.025,-3.417 -17.092,-3.417c-6.071,0 -11.658,1.135 -16.967,3.417c-5.321,2.288 -9.962,5.372 -13.917,9.29c-3.954,3.904 -7.104,8.464 -9.425,13.706c-2.312,5.244 -3.467,10.882 -3.467,16.854c0,5.972 1.154,11.598 3.467,16.83c2.321,5.251 5.471,9.809 9.425,13.72c3.954,3.903 8.596,6.972 13.917,9.224c5.308,2.252 10.971,3.353 16.967,3.353c5.996,0 11.758,-1.101 17.092,-3.353c5.317,-2.252 9.962,-5.322 13.917,-9.224c3.954,-3.911 7.087,-8.469 9.412,-13.72c1.329,-3.008 2.233,-6.161 2.8,-9.42l32.246,0l0,-14.845l0,0.001Z" style="fill:#231f20;fill-rule:nonzero;"/></g></svg>